<?xml version="1.0" encoding="utf-8"?>
<!-- Generator: Adobe Illustrator 19.1.0, SVG Export Plug-In . SVG Version: 6.00 Build 0)  -->
<!DOCTYPE svg PUBLIC "-//W3C//DTD SVG 1.1//EN" "http://www.w3.org/Graphics/SVG/1.1/DTD/svg11.dtd">
<svg version="1.1" id="Layer_1" xmlns="http://www.w3.org/2000/svg" xmlns:xlink="http://www.w3.org/1999/xlink" x="0px" y="0px"
	 width="741.1px" height="457.9px" viewBox="0 0 741.1 457.9" style="enable-background:new 0 0 741.1 457.9;" xml:space="preserve"
	>
<style type="text/css">
	.st0{clip-path:url(#SVGID_5_);fill:#FFFFFF;}
	.st1{fill:none;stroke:#FFFFFF;stroke-width:7.5768;}
	.st2{fill:#FFFFFF;}
</style>
<g id="Layer_2">
</g>
<g>
	<g>
		<defs>
			<path id="SVGID_1_" d="M262,112.8c0,60,48.6,108.6,108.6,108.6c60,0,108.6-48.6,108.6-108.6S430.5,4.2,370.6,4.2
				C310.6,4.2,262,52.8,262,112.8"/>
		</defs>
		<clipPath id="SVGID_2_">
			<use xlink:href="#SVGID_1_"  style="overflow:visible;"/>
		</clipPath>
	</g>
	<g>
		<defs>
			<path id="SVGID_3_" d="M370.6,4.1c-60,0-108.7,48.7-108.7,108.7c0,60.1,48.7,108.7,108.7,108.7s108.7-48.7,108.7-108.7
				C479.3,52.7,430.6,4.1,370.6,4.1z"/>
		</defs>
		<linearGradient id="SVGID_4_" gradientUnits="userSpaceOnUse" x1="370.567" y1="8.0945" x2="370.567" y2="221.3885">
			<stop  offset="0.1319" style="stop-color:#FEC057"/>
			<stop  offset="0.8626" style="stop-color:#EE3124"/>
		</linearGradient>
		<use xlink:href="#SVGID_3_"  style="overflow:visible;fill:url(#SVGID_4_);"/>
		<clipPath id="SVGID_5_">
			<use xlink:href="#SVGID_3_"  style="overflow:visible;"/>
		</clipPath>
		<path class="st0" d="M300.7,222.1c0,0-37.8-54.5,52.2-91.9c13.7-5.7,72.7-25.2,141.3-15.3c2.3,0.3-146.8,21.4-90.8,106.9h-34
			c0,0-57.8-86.2,116.7-106.7c2.8-0.3-75.5-5.2-119.4,28.2c0,0-59.8,34.6-29.3,78.7L300.7,222.1z"/>
	</g>
	<path class="st1" d="M479.6,112.8c0,60.2-48.8,109-109,109c-60.2,0-109-48.8-109-109c0-60.2,48.8-109,109-109
		C430.8,3.8,479.6,52.6,479.6,112.8z"/>
</g>
<g>
	<path class="st2" d="M43.2,353.4H3.8c-2.2,0-3.8-1.6-3.8-3.8v-119c0-2.2,1.6-3.8,3.8-3.8h39.5c29,0,54.1,15.8,54.1,63
		C97.3,337,72.2,353.4,43.2,353.4z M41.5,248.2H24.9v83.9h16.6c18.6,0,30.8-11.3,30.8-42.2C72.2,258.7,60,248.2,41.5,248.2z"/>
	<path class="st2" d="M110.2,231.4c0-6.9,5.7-12.6,12.6-12.6c6.9,0,12.6,5.7,12.6,12.6c0,6.9-5.7,12.6-12.6,12.6
		C116,244.1,110.2,238.3,110.2,231.4z M131.3,353.4h-17c-2.2,0-3.8-1.6-3.8-3.8v-87.3c0-2.2,1.6-3.8,3.8-3.8h17
		c2.2,0,3.8,1.6,3.8,3.8v87.3C135.1,351.8,133.5,353.4,131.3,353.4z"/>
	<path class="st2" d="M181.8,355.4c-14.4,0-24.1-4.3-28.6-7.1c-3.8-2.2-4.9-4.3-4.9-7.5v-9.9c0-3,1.2-4.3,3.4-4.3
		c1.4,0,2.6,0.4,4.3,1.4c4.7,2.6,13.2,7.5,22.9,7.5c6.9,0,13.8-1.6,13.8-9.7c0-7.1-4.5-10.1-14.4-12c-14.6-3-28.6-9.5-28.6-27.8
		c0-19.1,15.8-29.2,33-29.2c13.2,0,21.7,3.9,26.1,6.5c3.8,2.4,5.1,4.3,5.1,7.5v9.5c0,3-1.2,4.3-3.6,4.3c-1.4,0-2.6-0.4-4.1-1.4
		c-4.5-2.8-9.9-7.5-20.5-7.5c-6.9,0-12.2,2.2-12.2,9.3c0,5.7,4.5,8.9,13.2,10.7c17.4,3.6,30.2,10.1,30.2,29.2
		C216.7,345.5,200.1,355.4,181.8,355.4z"/>
	<path class="st2" d="M296.9,348.9c-4.1,2.6-13.6,6.5-26.6,6.5c-28.8,0-45.8-18.4-45.8-49.3c0-31,17-49.4,45.8-49.4
		c13,0,22.5,3.8,26.6,6.5c3.8,2.6,4.9,4.5,4.9,7.7v8.7c0,3-1,4.7-3.4,4.7c-1.4,0-2.6-0.6-4.5-1.6c-4.5-2.4-12.2-5.3-20.7-5.3
		c-14.4,0-24.3,8.5-24.3,28.6c0,20.1,9.9,28.6,24.3,28.6c8.5,0,16.2-3,20.7-5.3c2-1,3.2-1.6,4.5-1.6c2.4,0,3.4,1.8,3.4,4.7v8.7
		C301.8,344.3,300.7,346.5,296.9,348.9z"/>
	<path class="st2" d="M355,355.4c-27.6,0-46.2-17.8-46.2-49.3c0-31.6,18.6-49.4,46.2-49.4c27.4,0,46,17.8,46,49.4
		C401,337.6,382.5,355.4,355,355.4z M355,277.4c-13.2,0-21.7,8.5-21.7,28.6c0,20.1,8.5,28.6,21.7,28.6c13,0,21.5-8.5,21.5-28.6
		C376.6,285.9,368.1,277.4,355,277.4z"/>
	<path class="st2" d="M491.8,270.1l-32,79.7c-0.8,2.2-2,3.6-4.1,3.6h-16.6c-2.2,0-3.4-1.4-4.1-3.6l-32-79.7c-1.2-3-2.6-5.5-2.6-7.9
		c0-2,1.6-3.6,3.6-3.6h17c2.6,0,3.8,1.2,4.5,3.4l15.6,44c2.2,5.9,5.1,14.6,5.1,16.2c0,1.4,0.4,2,1.2,2c0.8,0,1.2-0.6,1.2-2
		c0-1.6,3.2-10.7,5.1-16.2l15.6-44c0.8-2,2.2-3.4,4.5-3.4h17c2,0,3.6,1.6,3.6,3.6C494.4,264.6,493,267.2,491.8,270.1z"/>
	<path class="st2" d="M575.6,310.2h-57.4c0,17.6,9.3,25.9,28,25.9c9.1,0,15.8-2.8,19.3-4.3c2.6-1.2,5.5-2.4,6.9-2.4
		c2.2,0,3.4,1.6,3.4,4.3v4.3c0,3.8-0.8,6.7-3.2,8.3c-6.7,4.5-17.2,9.1-33.4,9.1c-31.2,0-45.4-20.5-45.4-49.3
		c0-28.8,15.4-49.4,44-49.4c23.9,0,38.9,12.6,38.9,39.3C576.8,299.9,576.6,305.7,575.6,310.2z M538.3,273.7
		c-13.2,0-18.6,8.5-19.7,22.9h35.9c0.2-2.2,0.4-4.1,0.4-5.9C554.9,279.6,547.8,273.7,538.3,273.7z"/>
	<path class="st2" d="M639.4,258.3c5.5,0,11.6,2.8,11.6,7.1v18.6c0,2.2-1.4,3.6-3.6,3.6c-1.4,0-2.6-0.6-3.8-1.4
		c-2.8-1.8-5.3-3.6-10.5-3.6c-7.7,0-14.2,3.9-17.8,6.9v60.2c0,2.2-1.6,3.8-3.8,3.8h-17c-2.2,0-3.8-1.6-3.8-3.8v-87.3
		c0-2.2,1.6-3.8,3.8-3.8h9.7c6.7,0,10.9,4.7,10.9,9.9v1.4C620.8,263.6,630.1,258.3,639.4,258.3z"/>
	<path class="st2" d="M693.4,397.4c-3.8,0-10.1-0.4-15-1.6c-6.1-1.4-8.9-3-8.9-5.9v-12.6c0-2.4,1-3.6,3.2-3.6c1.4,0,3,0.6,5.7,1.6
		c3,1,6.9,1.8,13.6,1.8c19,0,24.7-9.1,24.7-27.8v-5.5c-4.7,3.6-14,10.9-29.8,10.9c-19,0-27.8-10.7-27.8-31v-61.2
		c0-2.2,1.6-3.8,3.8-3.8h17c2.2,0,3.8,1.6,3.8,3.8v58.4c0,9.1,4.7,12.6,12.2,12.6c11.1,0,20.9-4.7,20.9-4.7v-66.3
		c0-2.2,1.6-3.8,3.8-3.8h17c2.2,0,3.8,1.6,3.8,3.8v86.7C741.1,381.3,724.9,397.4,693.4,397.4z"/>
</g>
<g>
	<path class="st2" d="M263.4,408.6c0-0.7,0.6-1.4,1.4-1.4H281c8.8,0,16,7.1,16,15.8c0,8.9-7.2,16.1-15.9,16.1h-10.4v16.8
		c0,0.7-0.6,1.4-1.4,1.4h-4.6c-0.8,0-1.4-0.6-1.4-1.4V408.6z M280.6,432.1c4.9,0,9.1-4,9.1-9.1c0-4.9-4.1-8.6-9.1-8.6h-9.9v17.7
		H280.6z"/>
	<path class="st2" d="M298.1,455.4l21.9-48c0.2-0.4,0.9-0.8,1.2-0.8h0.7c0.4,0,1,0.4,1.2,0.8l21.8,48c0.4,0.9-0.1,1.9-1.2,1.9h-4.5
		c-0.9,0-1.4-0.4-1.6-1.1l-4.4-9.8h-23.3c-1.4,3.3-2.9,6.5-4.4,9.8c-0.2,0.5-0.8,1.1-1.6,1.1h-4.5
		C298.2,457.2,297.6,456.3,298.1,455.4z M330.4,440.2l-8.8-19.6h-0.4l-8.7,19.6H330.4z"/>
	<path class="st2" d="M354.9,408.6c0-0.7,0.6-1.4,1.4-1.4h19.4c8.6,0,15.6,6.8,15.6,15.3c0,6.6-4.4,12-10.6,14.5l9.8,18.1
		c0.5,0.9,0,2.1-1.2,2.1h-5.6c-0.6,0-1-0.4-1.1-0.6l-9.5-18.9h-10.8v18.2c0,0.7-0.6,1.4-1.4,1.4h-4.6c-0.8,0-1.4-0.6-1.4-1.4V408.6z
		 M375.2,431.5c4.6,0,8.7-3.9,8.7-8.9c0-4.6-4.1-8.5-8.7-8.5h-12.7v17.3H375.2z"/>
	<path class="st2" d="M404.9,409c0-0.9,0.7-1.7,1.7-1.7h4.1c0.9,0,1.7,0.8,1.7,1.7v19.8l20.1-20.8c0.3-0.4,0.8-0.7,1.4-0.7h5.4
		c1.3,0,2,1.5,1,2.6l-20.6,21l21.8,24.1c0.6,0.7,0.2,2.4-1.3,2.4h-5.7c-0.7,0-1.1-0.3-1.3-0.5l-20.8-23.4v22.2
		c0,0.9-0.8,1.7-1.7,1.7h-4.1c-1,0-1.7-0.8-1.7-1.7V409z"/>
	<path class="st2" d="M450,450c0.6-0.9,1.2-2,1.9-2.9c0.6-0.9,1.6-1.2,2.4-0.6c0.4,0.4,5.9,4.9,11.4,4.9c4.9,0,8.1-3,8.1-6.6
		c0-4.3-3.7-7-10.8-9.9c-7.3-3.1-13-6.9-13-15.1c0-5.6,4.3-13.2,15.6-13.2c7.1,0,12.5,3.7,13.2,4.2c0.6,0.4,1.1,1.4,0.4,2.4
		c-0.6,0.9-1.2,1.9-1.8,2.7c-0.6,0.9-1.5,1.4-2.5,0.7c-0.5-0.3-5.5-3.6-9.6-3.6c-6,0-8.1,3.8-8.1,6.4c0,4.1,3.1,6.6,9.1,9
		c8.3,3.4,15.4,7.3,15.4,16c0,7.4-6.6,13.5-15.9,13.5c-8.7,0-14.2-4.6-15.4-5.6C449.8,451.7,449.3,451.2,450,450z"/>
</g>
</svg>
